<?xml version="1.0" standalone="no"?>
<!DOCTYPE svg PUBLIC "-//W3C//DTD SVG 20010904//EN"
 "http://www.w3.org/TR/2001/REC-SVG-20010904/DTD/svg10.dtd">
<svg version="1.0" xmlns="http://www.w3.org/2000/svg"
 width="2372.000000pt" height="2323.000000pt" viewBox="0 0 2372.000000 2323.000000"
 preserveAspectRatio="xMidYMid meet">
<metadata>
Created by potrace 1.16, written by Peter Selinger 2001-2019
</metadata>
<g transform="translate(0.000000,2323.000000) scale(0.100000,-0.100000)"
fill="#000000" stroke="none">
<path d="M12565 23220 c-658 -49 -1290 -288 -1838 -696 -67 -50 -209 -166
-316 -258 -319 -275 -419 -348 -595 -432 -168 -80 -318 -118 -576 -144 -58 -6
-454 -15 -880 -20 -426 -5 -827 -14 -890 -20 -700 -67 -1060 -229 -1622 -730
-81 -72 -282 -262 -445 -423 -403 -395 -648 -620 -750 -689 -28 -19 -194 -69
-613 -183 -872 -238 -1147 -320 -1365 -407 -303 -120 -640 -316 -896 -519
-774 -615 -1200 -1565 -1434 -3194 -101 -701 -156 -1413 -210 -2680 -37 -877
-70 -1538 -100 -1991 -31 -473 -38 -811 -32 -1599 6 -766 12 -990 42 -1390 24
-317 40 -409 100 -590 144 -432 348 -767 647 -1062 392 -388 892 -635 1538
-762 306 -60 621 -55 948 14 246 52 459 131 743 277 l177 91 228 -140 c266
-162 379 -225 524 -288 633 -277 1428 -409 2075 -344 55 6 201 30 325 54 290
57 326 61 372 42 83 -35 88 -62 98 -622 4 -258 14 -513 20 -565 19 -148 53
-249 146 -430 430 -833 1040 -1268 2724 -1945 168 -67 367 -143 442 -169 163
-55 250 -92 798 -344 889 -408 1349 -602 1426 -602 28 0 82 -23 116 -50 143
-112 842 -323 1283 -387 152 -22 644 -25 805 -5 437 54 768 147 1224 342 90
38 205 85 257 104 111 40 183 71 769 331 714 316 1045 458 1685 722 827 341
1519 660 2080 958 565 301 745 428 1104 780 501 492 669 740 825 1220 135 417
196 844 196 1375 0 279 -8 411 -46 745 -110 981 -262 1635 -596 2565 -158 441
-227 643 -298 880 -203 670 -449 1691 -494 2045 -45 348 -81 995 -111 1985
-39 1287 -72 1813 -146 2365 -67 501 -202 963 -389 1334 -102 205 -160 395
-210 702 -129 775 -313 1363 -604 1924 -406 783 -952 1343 -1617 1659 -670
318 -1170 362 -2659 235 -419 -36 -629 -27 -870 37 -190 50 -335 109 -731 300
-597 287 -876 398 -1216 483 -364 92 -828 136 -1168 111z m760 -455 c681 -80
1314 -350 1796 -763 280 -240 449 -506 449 -705 0 -94 48 -147 105 -117 14 8
42 47 66 94 82 160 164 253 327 374 253 188 604 328 978 392 264 45 623 16
1029 -84 708 -175 1376 -536 1817 -982 341 -345 535 -700 736 -1344 226 -722
244 -887 262 -2425 11 -869 19 -1045 50 -1045 22 0 57 188 130 700 56 391 98
646 121 733 9 34 13 38 37 35 144 -16 440 -1056 491 -1723 63 -809 25 -2315
-84 -3424 -14 -139 -57 -504 -95 -810 -94 -751 -128 -1042 -204 -1741 -126
-1147 -157 -1494 -160 -1747 -1 -208 9 -225 51 -81 33 115 81 355 158 785 81
455 190 1000 256 1278 86 369 177 737 183 742 3 3 25 8 48 10 37 4 49 1 76
-22 45 -38 52 -53 122 -285 34 -113 178 -558 320 -990 505 -1535 698 -2202
829 -2870 81 -414 105 -636 106 -965 0 -351 -15 -448 -129 -850 -35 -126 -83
-284 -106 -350 -101 -292 -297 -616 -517 -855 -475 -514 -1172 -913 -2748
-1573 -709 -297 -1264 -548 -2170 -982 -1436 -688 -1880 -842 -2490 -862 -382
-13 -679 58 -930 221 -92 60 -252 228 -307 322 -127 216 -165 385 -188 819
-13 262 -23 290 -72 200 -86 -157 -258 -663 -258 -759 0 -54 -20 -106 -44
-117 -19 -9 -39 -4 -110 25 -247 103 -924 466 -1188 639 -77 50 -110 78 -120
101 -18 42 -15 295 5 501 32 319 41 537 42 980 0 389 -2 463 -18 545 -35 188
-87 300 -187 401 -154 156 -345 248 -1040 502 -173 64 -412 152 -530 197 -248
94 -349 125 -475 145 -407 66 -647 -103 -816 -576 -50 -142 -98 -342 -154
-644 -60 -324 -80 -416 -104 -469 -38 -88 -74 -80 -164 34 -114 144 -203 342
-249 553 -18 86 -22 134 -23 302 0 130 5 221 13 260 84 384 304 697 563 802
123 49 174 58 349 57 142 -1 187 -5 320 -32 259 -51 541 -69 1245 -78 512 -7
953 6 1125 31 199 30 591 147 1020 305 343 127 465 181 666 296 61 35 114 64
118 64 4 0 74 -29 156 -65 224 -99 556 -202 1095 -340 473 -121 672 -157 986
-176 244 -14 1775 -6 1904 10 227 30 493 107 935 271 126 46 318 141 412 202
82 54 200 146 369 290 96 81 198 136 316 170 67 20 101 23 248 23 144 -1 190
-5 300 -27 138 -29 240 -37 255 -22 16 16 -23 85 -107 189 -101 126 -229 249
-358 345 -127 95 -138 115 -131 230 6 96 29 184 170 652 203 672 261 977 371
1938 20 173 54 459 75 635 48 390 55 464 125 1275 106 1228 213 2170 286 2520
30 141 33 176 19 185 -34 21 -80 -76 -197 -415 -100 -288 -158 -411 -185 -394
-54 33 -256 647 -286 869 -14 98 -107 305 -138 305 -18 0 -18 -39 1 -204 35
-310 40 -543 40 -1761 0 -1353 -6 -1539 -53 -1679 -43 -128 -77 -127 -106 4
-22 97 -42 289 -71 680 -39 534 -60 719 -77 702 -21 -21 -29 -412 -34 -1832
l-6 -1495 -105 -400 c-141 -537 -202 -751 -283 -995 -216 -650 -464 -1082
-779 -1357 -261 -228 -613 -390 -941 -433 -226 -30 -1444 -30 -1820 0 -325 26
-633 77 -878 146 -375 105 -830 321 -882 419 -13 25 -13 28 5 41 41 30 188 14
440 -49 415 -105 924 -175 1425 -197 329 -15 645 10 689 54 13 13 12 16 -10
24 -41 16 -154 31 -379 52 -889 83 -1521 219 -1925 415 -146 70 -206 113 -353
247 l-123 113 5 515 c6 642 17 816 101 1645 178 1745 221 2404 285 4320 60
1816 87 2373 120 2549 11 55 18 101 16 103 -8 8 -87 -149 -111 -220 -35 -106
-79 -294 -114 -487 -80 -440 -164 -947 -191 -1150 -137 -1030 -315 -3081 -445
-5115 -42 -648 -49 -744 -76 -1015 -85 -862 -224 -1293 -527 -1637 -200 -226
-500 -421 -877 -570 -342 -135 -636 -197 -990 -210 l-190 -7 260 -63 c143 -35
271 -66 285 -69 20 -5 -5 -17 -117 -54 -77 -26 -174 -54 -215 -61 -92 -17
-428 -17 -593 0 -329 33 -717 94 -891 140 -470 125 -828 375 -964 675 -22 48
-31 88 -39 177 -75 823 -62 5710 20 7059 5 96 28 299 50 450 44 304 59 470 41
470 -15 0 -41 -40 -92 -138 -46 -89 -92 -146 -112 -140 -7 3 -20 18 -28 34
-12 23 -15 74 -14 269 0 194 8 319 38 650 40 440 57 847 37 898 -50 128 -137
-193 -205 -763 -107 -896 -125 -1455 -146 -4525 -13 -1963 -28 -3241 -40
-3510 -19 -422 -37 -545 -105 -744 -229 -670 -539 -940 -1175 -1026 -165 -22
-550 -30 -750 -16 -956 71 -1660 457 -1976 1084 -66 130 -69 152 -84 512 -24
620 -32 1678 -27 3575 7 2529 31 3721 82 4045 58 371 79 770 40 770 -32 0
-287 -984 -329 -1270 -72 -495 -126 -1942 -201 -5440 -23 -1065 -34 -1482 -45
-1685 -50 -895 -158 -1078 -652 -1106 -116 -7 -603 9 -828 26 -262 21 -413 59
-626 160 -745 351 -982 778 -1174 2120 -38 263 -84 654 -112 955 -17 187 -17
825 0 1005 40 407 111 783 228 1212 53 195 83 290 247 798 203 630 309 1098
346 1525 12 132 15 435 5 484 -18 87 -41 10 -159 -524 -127 -579 -298 -1113
-385 -1203 -52 -54 -89 -7 -116 148 -14 80 -15 136 -10 345 15 586 82 1628
121 1870 8 50 30 214 49 366 20 152 49 348 66 437 115 612 340 1333 546 1744
351 701 1224 1356 2102 1577 239 61 354 75 607 75 255 1 313 -8 431 -64 134
-65 220 -173 344 -435 57 -120 76 -153 82 -139 4 11 33 112 63 226 65 245 156
528 232 723 70 181 243 530 330 668 398 628 895 986 1581 1136 341 75 392 71
1586 -115 784 -122 905 -148 981 -215 19 -17 36 -43 40 -58 3 -16 -5 -136 -19
-267 -14 -132 -30 -294 -35 -362 -13 -181 -4 -198 55 -106 52 82 81 153 103
252 53 242 424 949 671 1277 94 125 322 354 461 462 493 383 1104 606 1799
657 108 8 477 -4 605 -19z m-3570 -17960 c175 -37 936 -330 1456 -560 221 -98
305 -140 350 -176 117 -92 161 -350 140 -808 -27 -569 -108 -1206 -167 -1323
-21 -40 -68 -62 -121 -54 -83 11 -839 267 -1168 396 -506 198 -1083 467 -1259
588 -113 77 -111 72 -110 290 2 411 107 884 275 1240 62 133 123 224 196 294
120 114 242 148 408 113z"/>
<path d="M13450 22349 c-63 -4 -131 -10 -150 -11 -32 -3 -8 -18 257 -169 631
-361 889 -563 1075 -844 117 -175 182 -336 238 -585 40 -182 63 -372 90 -775
37 -544 64 -745 95 -714 43 44 43 707 -1 1077 -27 238 -96 532 -178 767 -189
543 -515 973 -874 1154 -86 44 -225 88 -297 96 -120 12 -142 12 -255 4z"/>
<path d="M7830 20806 c0 -17 83 -97 215 -207 456 -382 863 -994 1020 -1537 14
-45 38 -151 55 -234 32 -157 54 -223 84 -248 16 -13 20 -12 32 4 21 29 27 100
21 236 -20 401 -177 866 -410 1215 -130 194 -331 410 -482 517 -96 68 -320
190 -430 235 -89 36 -105 39 -105 19z"/>
<path d="M7615 6449 c-69 -16 -193 -59 -415 -144 -450 -173 -562 -195 -1155
-230 -318 -18 -495 -34 -515 -45 -24 -13 16 -25 252 -72 213 -43 213 -43 428
-42 232 0 368 16 605 69 369 83 636 194 820 341 141 112 134 158 -20 123z"/>
<path d="M15595 3441 c-6 -19 4 -118 29 -301 57 -407 44 -906 -34 -1300 -60
-303 -150 -576 -300 -915 -79 -178 -133 -316 -126 -323 22 -22 216 163 290
276 176 271 303 648 361 1072 22 165 30 507 16 660 -26 265 -118 656 -187 792
-28 55 -40 65 -49 39z"/>
<path d="M20480 2910 c-351 -43 -794 -184 -1251 -398 -176 -82 -1062 -575
-1266 -704 -65 -41 -81 -68 -40 -68 134 0 918 291 1702 632 293 127 468 197
730 291 262 94 355 130 427 169 108 57 80 80 -102 84 -69 1 -159 -1 -200 -6z"/>
</g>
</svg>
