<?xml version="1.0" standalone="no"?>
<!DOCTYPE svg PUBLIC "-//W3C//DTD SVG 20010904//EN"
 "http://www.w3.org/TR/2001/REC-SVG-20010904/DTD/svg10.dtd">
<svg version="1.0" xmlns="http://www.w3.org/2000/svg"
 width="339.000000pt" height="316.000000pt" viewBox="0 0 339.000000 316.000000"
 preserveAspectRatio="xMidYMid meet">
<metadata>
Created by potrace 1.16, written by Peter Selinger 2001-2019
</metadata>
<g transform="translate(0.000000,316.000000) scale(0.100000,-0.100000)"
fill="#000000" stroke="none">
<path d="M2520 3141 c0 -5 -22 -14 -50 -21 -27 -7 -50 -16 -50 -21 0 -5 -11
-9 -24 -9 -14 0 -31 -7 -40 -15 -8 -8 -21 -15 -30 -15 -8 0 -70 -29 -138 -64
-68 -35 -138 -67 -155 -70 -17 -4 -37 -14 -44 -22 -6 -8 -17 -14 -24 -14 -8 0
-15 -3 -17 -7 -4 -10 -91 -53 -107 -53 -6 0 -11 -5 -11 -12 0 -6 -3 -8 -6 -5
-4 4 -14 -2 -24 -13 -9 -10 -28 -22 -43 -25 -15 -4 -27 -11 -27 -16 0 -5 -4
-9 -9 -9 -5 0 -22 -5 -38 -12 -15 -6 -31 -11 -35 -10 -5 1 -8 -3 -8 -8 0 -6
-7 -10 -15 -10 -9 0 -18 -6 -21 -14 -3 -8 -19 -18 -35 -21 -16 -4 -29 -10 -29
-15 0 -4 -12 -11 -27 -15 -15 -3 -31 -11 -34 -17 -15 -24 -26 6 -32 83 -3 45
-10 85 -15 88 -5 3 -13 17 -17 31 -16 53 -101 111 -119 81 -3 -4 -35 -11 -72
-14 -37 -2 -69 -9 -73 -14 -3 -6 -26 -13 -50 -17 -24 -4 -53 -13 -64 -21 -12
-8 -32 -15 -44 -15 -13 0 -23 -4 -23 -9 0 -5 -13 -12 -30 -16 -16 -4 -30 -10
-30 -15 0 -5 -13 -11 -30 -15 -16 -4 -30 -10 -30 -14 0 -4 -17 -13 -37 -20
-21 -8 -40 -17 -43 -20 -8 -9 -39 -27 -97 -56 -29 -14 -53 -30 -53 -34 0 -5
-14 -12 -30 -16 -17 -4 -30 -11 -30 -17 0 -6 -6 -8 -14 -5 -8 3 -17 -1 -20 -9
-6 -14 -73 -50 -89 -46 -4 1 -7 -2 -7 -7 0 -5 -12 -12 -27 -16 -15 -3 -30 -10
-33 -13 -9 -12 -97 -52 -114 -52 -9 0 -16 -5 -16 -11 0 -6 -9 -9 -20 -6 -11 3
-23 1 -26 -4 -3 -5 -14 -9 -25 -9 -10 0 -19 -5 -19 -11 0 -6 -9 -9 -20 -6 -11
3 -20 1 -20 -4 0 -5 -11 -9 -25 -9 -14 0 -25 -4 -25 -10 0 -5 -11 -10 -25 -10
-22 0 -25 -4 -25 -39 0 -36 2 -39 23 -34 12 4 31 12 42 20 11 7 30 13 42 13
13 0 23 4 23 9 0 5 20 14 44 20 25 6 48 15 51 21 3 5 17 10 30 10 13 0 30 6
37 14 8 7 25 17 38 20 40 12 198 92 210 107 3 4 16 10 30 14 13 4 30 14 38 21
7 8 22 14 33 14 10 0 19 4 19 9 0 5 25 21 55 36 30 14 55 30 55 34 0 5 13 12
30 16 16 4 30 10 30 15 0 5 13 11 30 15 16 4 30 10 30 15 0 5 14 11 30 15 16
4 30 10 30 14 0 9 60 31 83 31 9 0 17 4 17 10 0 5 16 12 35 16 19 3 35 10 35
15 0 5 12 9 26 9 22 0 25 -2 14 -15 -7 -8 -19 -15 -26 -15 -8 0 -14 -4 -14
-10 0 -5 -4 -10 -9 -10 -5 0 -28 -12 -50 -27 -47 -30 -52 -56 -21 -96 11 -14
20 -30 20 -36 0 -6 4 -11 9 -11 5 0 13 -10 16 -21 12 -38 85 -90 85 -60 0 5
13 11 30 14 16 4 39 16 50 27 11 11 26 20 34 20 8 0 16 7 20 15 3 8 11 15 17
15 6 0 -15 -24 -47 -54 -33 -30 -72 -66 -87 -80 -16 -14 -35 -26 -43 -26 -8 0
-17 -6 -20 -14 -3 -8 -18 -18 -34 -21 -16 -3 -31 -13 -34 -21 -3 -8 -12 -14
-21 -14 -8 0 -15 -4 -15 -10 0 -5 -6 -10 -14 -10 -7 0 -19 -7 -26 -15 -7 -8
-16 -12 -21 -9 -5 3 -9 1 -9 -4 0 -5 -8 -13 -18 -16 -9 -3 -42 -20 -72 -36
-30 -16 -60 -30 -66 -30 -7 0 -14 -7 -18 -15 -3 -8 -12 -15 -21 -15 -8 0 -15
-4 -15 -9 0 -5 -12 -12 -26 -15 -15 -4 -32 -12 -40 -19 -34 -30 -44 -37 -69
-43 -15 -4 -29 -12 -32 -19 -2 -7 -16 -16 -31 -20 -15 -4 -29 -10 -32 -13 -9
-13 -69 -52 -79 -52 -5 0 -11 -7 -15 -15 -3 -8 -11 -15 -19 -15 -24 0 -158
-142 -164 -175 -4 -16 -11 -33 -17 -37 -7 -5 -5 -8 6 -8 9 0 23 7 32 15 8 8
18 15 22 15 4 0 27 20 51 45 23 25 47 45 51 45 5 0 17 9 27 20 10 11 24 20 32
20 7 0 13 4 13 8 0 9 77 62 90 62 5 0 10 3 12 8 5 11 66 52 78 52 5 0 10 5 10
10 0 9 49 34 58 30 2 -1 11 8 21 19 9 11 30 23 45 27 15 3 30 12 33 20 2 7 17
16 33 19 16 3 31 13 34 21 3 8 12 14 21 14 8 0 15 4 15 9 0 5 14 12 30 16 17
4 30 10 30 14 0 9 100 61 114 60 5 0 12 3 15 8 8 10 31 24 101 60 30 15 61 34
68 40 7 7 20 13 28 13 8 0 14 4 14 9 0 5 14 12 30 16 17 4 30 10 30 15 0 8 59
34 73 31 4 0 7 4 7 9 0 6 9 10 20 10 11 0 20 3 20 8 0 4 39 27 88 52 48 25 89
48 92 52 3 3 18 10 33 13 15 4 27 12 27 17 0 6 6 8 14 5 8 -3 17 0 20 8 5 14
99 65 119 65 6 0 18 6 26 14 9 7 48 30 86 51 39 20 72 41 75 45 3 4 16 11 30
15 14 4 27 11 30 14 7 9 116 62 132 65 7 1 39 14 70 29 31 15 63 27 72 27 8 0
16 5 18 10 2 6 29 14 61 17 31 3 57 10 57 14 0 16 65 9 103 -10 50 -26 67 -40
67 -59 0 -12 -5 -11 -23 6 -13 12 -29 22 -35 22 -7 0 -12 5 -12 10 0 12 -37
13 -44 1 -3 -5 -22 -12 -41 -15 -19 -4 -35 -11 -35 -16 0 -6 -7 -10 -15 -10
-7 0 -18 -8 -24 -17 -5 -10 -13 -15 -17 -11 -9 9 -44 -30 -44 -48 0 -20 41
-94 51 -94 5 0 9 -6 9 -14 0 -7 6 -19 14 -25 24 -20 27 -53 5 -58 -10 -3 -19
-8 -19 -12 0 -4 -34 -25 -75 -46 -41 -22 -75 -43 -75 -46 0 -4 -13 -10 -30
-14 -16 -4 -30 -10 -30 -15 0 -5 -13 -11 -29 -15 -16 -3 -32 -13 -35 -21 -3
-8 -12 -14 -21 -14 -8 0 -15 -4 -15 -10 0 -5 -6 -10 -12 -10 -18 0 -118 -52
-118 -61 0 -4 -13 -10 -30 -14 -16 -4 -30 -10 -30 -15 0 -5 -13 -11 -29 -15
-16 -3 -32 -13 -35 -21 -3 -8 -12 -14 -21 -14 -8 0 -15 -4 -15 -9 0 -5 -13
-12 -30 -16 -16 -4 -30 -10 -30 -13 0 -4 -15 -13 -32 -21 -18 -8 -35 -17 -38
-20 -8 -9 -41 -28 -97 -56 -29 -14 -53 -30 -53 -34 0 -5 -13 -12 -30 -16 -16
-4 -30 -11 -30 -16 0 -4 -24 -20 -52 -34 -68 -34 -112 -58 -118 -66 -3 -4 -15
-9 -27 -13 -13 -4 -23 -11 -23 -16 0 -5 -13 -11 -29 -15 -16 -3 -32 -13 -35
-21 -3 -8 -12 -14 -21 -14 -8 0 -15 -4 -15 -9 0 -5 -13 -12 -29 -16 -42 -9
-49 -35 -11 -35 17 0 30 5 30 11 0 7 10 9 25 7 14 -3 25 -2 25 2 0 4 12 11 28
14 28 7 213 96 222 108 3 3 18 10 33 13 15 4 27 10 27 14 0 9 51 35 63 33 4
-1 7 2 7 6 0 5 24 21 53 36 60 31 90 48 97 58 3 3 18 10 33 13 15 4 27 11 27
16 0 5 24 20 53 34 28 15 66 35 82 45 35 23 72 40 86 40 5 0 9 4 9 9 0 5 8 12
18 15 9 3 42 20 72 36 30 16 60 30 66 30 7 0 14 7 18 15 3 8 12 15 21 15 8 0
15 4 15 9 0 5 14 12 30 16 17 4 30 11 30 16 0 6 4 8 9 5 5 -3 14 1 21 9 7 8
19 15 26 15 8 0 14 4 14 9 0 5 13 12 29 16 16 3 32 13 35 21 3 8 12 14 21 14
8 0 15 4 15 9 0 5 14 12 30 16 17 4 30 10 30 14 0 3 12 12 28 19 15 6 45 23
67 36 22 14 52 28 68 31 15 4 27 10 27 15 0 5 14 11 30 15 17 4 30 10 30 15 0
4 12 11 27 15 15 3 30 10 33 13 11 16 79 44 89 38 6 -4 11 -2 11 3 0 6 7 11
15 11 8 0 15 4 15 9 0 5 15 13 33 16 17 4 37 11 42 15 6 4 35 13 65 20 30 7
58 17 61 23 7 10 79 -55 79 -72 0 -5 6 -14 14 -18 7 -4 16 -28 19 -53 3 -25 3
-37 0 -27 -2 9 -9 17 -14 17 -5 0 -9 6 -9 13 0 15 -44 57 -59 57 -6 0 -11 4
-11 9 0 18 -42 24 -52 8 -4 -9 -21 -18 -37 -22 -16 -3 -32 -13 -35 -21 -3 -8
-12 -14 -21 -14 -8 0 -15 -4 -15 -9 0 -5 -13 -14 -29 -19 -38 -13 -50 -68 -25
-115 9 -18 21 -41 27 -53 6 -12 20 -25 31 -30 23 -10 37 -49 15 -42 -8 3 -24
-6 -37 -19 -12 -13 -32 -23 -42 -23 -11 0 -20 -5 -20 -11 0 -5 -4 -7 -10 -4
-5 3 -10 2 -10 -3 0 -4 -20 -19 -45 -31 -25 -12 -45 -27 -45 -32 0 -5 -5 -9
-10 -9 -11 0 -70 -39 -80 -52 -3 -3 -18 -10 -33 -13 -15 -4 -27 -11 -27 -16 0
-5 -8 -13 -17 -16 -19 -7 -75 -44 -83 -55 -3 -3 -17 -9 -32 -13 -15 -4 -29
-13 -32 -21 -3 -8 -12 -14 -21 -14 -8 0 -15 -4 -15 -10 0 -5 -11 -12 -25 -16
-14 -3 -25 -10 -25 -14 0 -5 -13 -11 -30 -15 -16 -4 -30 -11 -30 -17 0 -6 -3
-8 -7 -5 -3 4 -13 1 -22 -7 -9 -8 -37 -26 -63 -40 -38 -21 -48 -24 -48 -11 0
8 -4 15 -9 15 -5 0 -12 15 -16 33 -8 38 -61 97 -87 97 -22 0 -24 -23 -3 -40 9
-7 13 -15 10 -18 -2 -3 6 -14 19 -26 13 -12 29 -38 34 -58 10 -36 9 -38 -26
-65 -21 -15 -38 -31 -40 -35 -2 -4 -8 -8 -13 -8 -9 0 -68 -38 -79 -51 -3 -3
-27 -19 -55 -34 -27 -16 -51 -33 -53 -37 -2 -4 -12 -8 -23 -8 -10 0 -19 -4
-19 -10 0 -5 -15 -16 -32 -25 -40 -18 -71 -37 -79 -48 -8 -11 -47 -34 -71 -43
-10 -3 -18 -10 -18 -15 0 -5 -15 -16 -32 -24 -18 -8 -46 -24 -63 -35 -16 -11
-37 -23 -45 -27 -8 -4 -24 -16 -35 -28 -11 -12 -28 -24 -37 -28 -10 -3 -18
-11 -18 -16 0 -5 -9 -13 -21 -16 -11 -4 -35 -22 -52 -39 -18 -18 -40 -36 -50
-39 -10 -4 -16 -11 -13 -16 7 -11 46 -3 46 9 0 5 14 11 30 15 17 4 30 11 30
16 0 10 49 34 63 31 4 -1 7 2 7 7 0 5 8 12 18 15 9 4 35 18 57 31 22 14 48 28
58 31 9 4 17 10 17 15 0 5 7 9 15 9 9 0 18 6 21 14 3 8 19 18 35 21 16 4 29
11 29 16 0 9 49 33 59 29 2 -1 7 2 10 7 10 14 70 53 81 53 5 0 10 4 10 9 0 5
8 12 18 15 24 9 64 33 71 43 3 5 17 14 31 21 33 16 57 31 101 64 19 15 47 30
61 33 15 4 29 13 32 21 3 8 12 14 21 14 8 0 15 4 15 8 0 5 20 19 45 31 25 12
45 26 45 31 0 5 14 11 30 15 17 4 30 10 30 15 0 4 24 20 53 35 28 15 59 33 68
41 8 8 21 14 27 14 7 0 12 3 12 8 0 7 9 13 66 42 16 8 35 20 42 27 7 7 20 13
28 13 8 0 14 5 14 10 0 6 7 10 15 10 9 0 18 7 21 15 4 8 11 15 17 15 18 0 117
50 117 59 0 5 14 12 30 16 17 4 30 10 30 15 0 5 14 11 30 15 17 4 30 10 30 15
0 5 14 11 30 15 17 4 30 10 30 15 0 5 14 11 30 15 17 4 30 10 30 15 0 5 13 11
29 15 35 8 68 -19 76 -62 3 -16 2 -21 -2 -13 -13 30 -37 45 -75 45 -21 0 -42
-5 -46 -11 -4 -6 -32 -23 -62 -38 -107 -51 -129 -73 -101 -97 10 -8 22 -26 26
-40 8 -26 38 -59 55 -59 15 0 12 17 -5 24 -8 3 -15 12 -15 21 0 8 -4 15 -10
15 -5 0 -10 9 -10 20 0 11 5 20 10 20 6 0 10 7 10 15 0 8 6 15 14 15 8 0 16 7
20 15 3 8 12 15 21 15 8 0 15 5 15 10 0 6 27 10 60 10 62 0 71 -7 45 -34 -8
-8 -15 -21 -15 -29 0 -8 -7 -17 -15 -21 -8 -3 -15 -12 -15 -19 0 -17 -161
-167 -179 -167 -4 0 -16 -9 -26 -20 -10 -11 -24 -20 -32 -20 -7 0 -13 -4 -13
-9 0 -8 -56 -47 -84 -60 -5 -2 -19 -13 -30 -25 -12 -12 -32 -27 -46 -34 -14
-7 -38 -21 -55 -32 -16 -11 -38 -23 -47 -26 -10 -4 -18 -10 -18 -15 0 -5 -11
-14 -25 -19 -14 -5 -25 -14 -25 -19 0 -5 -13 -12 -30 -16 -16 -4 -30 -11 -30
-16 0 -5 -11 -11 -25 -15 -14 -3 -25 -10 -25 -15 0 -5 -7 -9 -15 -9 -9 0 -18
-6 -21 -14 -3 -8 -19 -18 -35 -21 -16 -4 -29 -10 -29 -14 0 -9 -51 -35 -62
-33 -5 1 -8 -2 -8 -6 0 -5 -24 -21 -52 -36 -76 -39 -88 -47 -131 -82 -7 -6
-23 -15 -35 -18 -12 -4 -22 -11 -22 -16 0 -5 -13 -11 -29 -15 -16 -3 -32 -12
-34 -20 -3 -7 -19 -16 -35 -20 -17 -3 -33 -13 -36 -21 -3 -8 -12 -14 -20 -14
-8 0 -16 -3 -18 -7 -5 -12 -66 -53 -78 -53 -5 0 -10 -4 -10 -10 0 -5 -6 -10
-13 -10 -8 0 -22 -9 -32 -20 -10 -11 -24 -20 -32 -20 -7 0 -13 -5 -13 -10 0
-6 -10 -15 -22 -21 -45 -20 -72 -38 -80 -53 -5 -9 -15 -16 -22 -16 -8 0 -29
-15 -48 -33 -18 -17 -52 -48 -75 -67 -45 -37 -53 -50 -28 -50 8 0 15 5 15 10
0 6 10 15 23 20 12 6 40 22 62 35 22 13 48 27 58 31 9 3 17 10 17 14 0 5 20
19 45 31 25 12 45 26 45 31 0 4 7 8 15 8 9 0 18 6 21 14 3 8 18 18 34 21 16 3
31 12 33 20 3 7 19 16 36 20 17 4 31 10 31 14 0 4 20 18 45 30 25 12 45 26 45
31 0 5 14 11 30 15 17 4 30 10 30 14 0 4 24 20 53 35 28 15 70 38 92 52 22 13
48 26 58 30 9 3 17 10 17 15 0 5 7 9 15 9 9 0 18 6 21 14 3 8 19 18 35 21 16
4 29 10 29 14 0 8 47 34 63 35 5 1 14 9 21 18 7 9 25 20 40 24 15 3 30 12 33
19 2 7 16 16 31 20 15 4 29 10 32 14 3 4 33 24 68 45 34 21 62 42 62 47 0 5
11 11 24 15 14 3 27 12 30 19 2 7 18 16 35 20 17 4 31 11 31 16 0 12 37 12 45
-1 4 -6 11 -8 16 -5 5 4 9 -4 9 -16 0 -19 -4 -21 -35 -16 -19 3 -35 2 -35 -3
0 -4 -12 -11 -26 -14 -24 -6 -35 -13 -69 -43 -7 -7 -18 -13 -24 -13 -16 0 -13
-31 4 -50 8 -9 18 -31 21 -48 5 -25 3 -33 -12 -39 -11 -3 -28 -16 -40 -27 -23
-24 -50 -42 -80 -55 -12 -5 -24 -17 -27 -25 -4 -9 -16 -16 -27 -16 -11 0 -20
-4 -20 -8 0 -5 -20 -23 -45 -41 -25 -18 -45 -30 -45 -27 0 2 -13 -8 -29 -22
-41 -39 -59 -52 -68 -52 -5 0 -16 -9 -26 -20 -9 -11 -23 -20 -31 -20 -8 0 -16
-7 -20 -15 -3 -8 -10 -15 -16 -15 -6 0 -21 -10 -33 -23 -12 -12 -35 -29 -52
-37 -16 -8 -39 -24 -50 -35 -11 -12 -27 -24 -35 -28 -33 -17 -63 -36 -69 -44
-10 -14 -70 -53 -81 -53 -5 0 -10 -4 -10 -9 0 -9 -29 -28 -77 -50 -13 -6 -23
-15 -23 -21 0 -5 -5 -10 -10 -10 -12 0 -73 -41 -78 -52 -2 -5 -10 -8 -17 -8
-8 0 -18 -6 -22 -13 -4 -7 -19 -18 -33 -25 -14 -7 -38 -21 -55 -32 -16 -11
-40 -24 -52 -30 -13 -5 -23 -14 -23 -19 0 -5 -8 -11 -17 -15 -10 -3 -36 -17
-58 -30 -22 -14 -47 -28 -55 -32 -8 -4 -17 -10 -20 -13 -3 -4 -16 -12 -30 -19
-14 -7 -43 -23 -65 -36 -22 -14 -52 -28 -67 -31 -14 -3 -29 -13 -32 -21 -3 -8
-12 -14 -21 -14 -8 0 -15 -4 -15 -9 0 -5 -13 -12 -30 -16 -17 -4 -30 -10 -30
-15 0 -5 -14 -11 -30 -15 -16 -4 -30 -11 -30 -17 0 -5 -6 -8 -12 -6 -7 3 -22
-4 -33 -15 -22 -20 -115 -67 -133 -67 -7 0 -12 -4 -12 -9 0 -5 -13 -12 -29
-16 -16 -3 -32 -13 -35 -21 -3 -8 -12 -14 -21 -14 -8 0 -15 -4 -15 -9 0 -5
-14 -12 -30 -16 -17 -4 -30 -10 -30 -14 0 -9 -100 -61 -114 -60 -5 0 -12 -4
-15 -9 -5 -8 -109 -67 -188 -106 -13 -6 -23 -14 -23 -18 0 -3 -14 -9 -30 -13
-17 -4 -30 -10 -30 -15 0 -5 -13 -11 -29 -15 -16 -3 -32 -13 -35 -21 -3 -8
-12 -14 -21 -14 -8 0 -15 -4 -15 -9 0 -5 -22 -14 -50 -21 -27 -7 -50 -16 -50
-20 0 -4 -12 -11 -27 -15 -34 -8 -43 -21 -43 -60 0 -17 4 -25 8 -18 4 6 20 15
35 18 15 4 27 11 27 15 0 4 12 11 27 15 15 3 30 10 33 14 8 10 184 96 192 94
4 -2 8 1 8 6 0 5 14 12 30 16 17 4 30 10 30 15 0 5 13 11 30 15 16 4 30 10 30
15 0 4 12 11 27 15 15 3 30 10 33 13 7 9 185 95 200 97 16 2 130 61 130 67 0
4 9 8 19 8 11 0 26 6 33 12 26 24 225 128 244 128 8 0 14 3 14 8 0 7 22 21 73
44 15 7 27 16 27 20 0 4 9 8 20 8 11 0 23 6 26 14 3 8 19 18 35 21 16 4 29 11
29 16 0 5 8 13 18 16 9 4 32 22 49 40 18 18 37 33 43 33 5 0 26 18 46 40 20
22 43 40 50 40 8 0 17 7 21 16 3 8 11 13 18 11 6 -3 17 4 24 14 6 11 16 17 21
14 5 -3 15 4 24 16 8 12 19 18 24 15 6 -3 12 1 16 9 3 8 12 15 21 15 8 0 15 4
15 10 0 5 11 12 24 16 14 3 27 12 30 20 3 8 12 14 21 14 8 0 15 5 15 10 0 6
10 15 23 20 33 15 61 33 70 48 4 6 15 12 22 12 8 0 15 4 15 10 0 5 11 12 25
16 14 3 25 10 25 15 0 5 11 14 25 19 14 5 25 14 25 19 0 5 8 11 18 15 9 3 35
17 57 31 22 13 48 27 58 31 9 3 17 10 17 15 0 5 10 14 23 19 29 13 60 33 68
43 7 10 42 31 77 46 12 6 22 15 22 21 0 5 7 10 15 10 9 0 18 7 21 15 4 8 12
15 20 15 8 0 22 9 31 20 10 11 21 20 25 20 4 0 19 10 34 23 14 12 29 22 32 21
4 0 15 10 25 23 10 13 23 23 29 23 6 0 26 16 45 35 19 19 38 35 42 35 4 0 60
53 124 118 107 107 117 120 117 154 0 20 -4 40 -10 43 -5 3 -10 13 -10 22 0 9
-7 24 -16 34 -14 16 -14 19 6 39 12 12 24 20 26 17 3 -3 17 6 32 20 43 39 56
49 72 57 51 23 76 43 159 127 93 92 94 95 99 162 4 50 1 68 -19 104 -13 24
-27 43 -31 43 -15 0 -8 20 13 41 11 11 23 18 26 15 3 -3 19 8 34 24 28 28 29
33 28 110 -1 44 -5 82 -9 85 -4 3 -11 21 -14 40 -4 19 -11 35 -16 35 -6 0 -10
5 -10 11 0 7 -16 27 -35 45 -31 31 -39 34 -95 34 -33 0 -60 -4 -60 -9 0 -5
-16 -12 -35 -15 -19 -4 -35 -11 -35 -16 0 -4 -13 -11 -30 -15 -16 -4 -30 -10
-30 -15 0 -5 -13 -11 -30 -15 -16 -4 -30 -11 -30 -16 0 -5 -6 -9 -13 -9 -7 0
-29 -9 -50 -19 -20 -10 -49 -22 -63 -25 -25 -7 -26 -5 -22 29 2 19 0 35 -4 35
-4 0 -8 10 -8 23 0 25 -81 119 -112 130 -10 4 -18 11 -18 17 0 7 -8 9 -19 5
-11 -3 -22 -1 -26 5 -8 12 -105 14 -105 1z m134 -175 c31 -31 26 -89 -10 -127
-18 -18 -36 -28 -46 -25 -10 2 -18 0 -18 -5 0 -5 -7 -9 -15 -9 -8 0 -15 4 -15
10 0 5 -6 7 -14 4 -9 -3 -16 5 -21 23 -3 15 -10 30 -14 33 -3 3 -14 17 -23 31
-16 25 -16 27 0 32 9 4 41 19 71 36 56 31 71 31 105 -3z m574 -102 c12 -4 22
-12 22 -19 0 -7 5 -15 12 -17 7 -3 12 -20 11 -40 -1 -41 -53 -103 -97 -114
-14 -3 -26 -10 -26 -15 0 -5 -9 -9 -20 -9 -11 0 -20 7 -20 15 0 8 -4 15 -8 15
-4 0 -13 12 -19 28 -7 15 -18 34 -25 44 -10 14 -7 20 20 43 28 23 109 72 122
74 3 0 15 -2 28 -5z m-1942 -87 c4 -12 13 -27 20 -35 8 -7 14 -23 14 -34 0
-23 -27 -58 -44 -58 -6 0 -23 -13 -37 -29 -37 -42 -64 -47 -94 -19 -14 13 -25
29 -25 36 0 6 -5 12 -11 12 -6 0 -9 7 -5 15 3 8 1 15 -4 15 -6 0 -10 7 -10 15
0 8 6 15 14 15 8 0 16 7 20 15 3 8 12 15 19 15 8 0 22 9 32 20 10 11 24 20 32
20 7 0 13 4 13 9 0 11 29 19 47 13 7 -2 15 -13 19 -25z"/>
</g>
</svg>
