<?xml version="1.0" standalone="no"?>
<!DOCTYPE svg PUBLIC "-//W3C//DTD SVG 20010904//EN"
 "http://www.w3.org/TR/2001/REC-SVG-20010904/DTD/svg10.dtd">
<svg version="1.0" xmlns="http://www.w3.org/2000/svg"
 width="2400.000000pt" height="896.000000pt" viewBox="0 0 2400.000000 896.000000"
 preserveAspectRatio="xMidYMid meet">
<metadata>
Created by potrace 1.16, written by Peter Selinger 2001-2019
</metadata>
<g transform="translate(0.000000,896.000000) scale(0.100000,-0.100000)"
fill="#000000" stroke="none">
<path d="M18550 8954 c-257 -18 -473 -47 -1030 -139 -623 -103 -694 -110
-1055 -110 -383 0 -499 12 -1275 130 -642 97 -899 121 -1215 112 -379 -11
-760 -73 -1285 -206 -183 -47 -323 -87 -1205 -341 -391 -113 -700 -194 -1035
-269 -1199 -270 -2076 -421 -2845 -490 -499 -45 -920 -58 -2110 -66 -1392 -9
-1690 -21 -2925 -115 -1070 -82 -1466 -106 -1995 -121 -220 -6 -403 -14 -407
-18 -14 -14 -170 -302 -165 -307 3 -3 254 13 558 35 1935 142 3290 224 5049
307 217 10 695 19 1360 24 585 5 1085 13 1165 19 697 56 1068 137 2555 556
1243 350 1733 465 2359 555 610 87 1025 98 1649 45 1250 -105 1950 -109 2957
-15 1796 168 3699 26 5767 -431 l237 -52 30 -66 c73 -159 63 -300 -34 -445
-184 -278 -595 -458 -1192 -521 -342 -36 -654 -31 -1528 27 -431 29 -531 32
-975 32 -692 1 -843 -14 -1432 -149 -255 -58 -353 -73 -748 -116 -588 -63
-793 -95 -1043 -164 -175 -48 -300 -96 -457 -176 -162 -83 -293 -175 -411
-287 -89 -84 -117 -131 -104 -172 10 -30 83 -26 191 10 49 17 115 37 148 45
l59 14 261 -104 c726 -287 1297 -482 3026 -1030 1780 -564 2773 -936 3572
-1336 479 -240 745 -461 809 -671 27 -89 20 -153 -27 -248 -134 -267 -504
-326 -1144 -184 -242 55 -388 99 -1440 443 -1344 438 -1898 606 -2515 760
-609 152 -1098 240 -1644 297 -200 21 -811 30 -1011 15 -301 -23 -614 -77
-880 -153 l-104 -30 -16 23 c-8 13 -43 59 -78 103 -421 536 -1100 1029 -1792
1301 -80 31 -149 61 -154 65 -19 18 -8 144 18 223 34 102 73 177 207 404 103
174 169 294 169 308 0 11 -58 -25 -112 -69 -73 -59 -158 -163 -312 -379 -172
-242 -176 -247 -209 -247 -42 0 -90 24 -119 58 -41 49 -65 126 -88 288 -12 82
-23 150 -25 152 -1 2 -18 -3 -37 -11 -53 -22 -64 -59 -50 -167 23 -173 9 -255
-55 -322 l-26 -27 -66 34 c-152 78 -255 161 -445 361 -133 140 -271 263 -282
251 -8 -8 23 -119 56 -196 74 -173 188 -319 355 -453 175 -140 405 -263 900
-479 503 -219 685 -312 930 -475 279 -185 558 -448 919 -868 231 -268 573
-710 713 -921 259 -389 485 -893 509 -1135 11 -112 -51 -256 -156 -361 -217
-218 -590 -197 -1141 64 -323 153 -772 451 -1129 750 -198 165 -240 216 -380
457 -143 247 -201 314 -375 440 -282 203 -587 353 -1330 653 -545 220 -776
330 -984 468 -230 153 -349 280 -445 473 -66 135 -85 206 -93 355 -6 107 -7
112 -21 86 -19 -37 -12 -180 12 -250 27 -77 108 -243 162 -331 74 -122 188
-351 212 -428 12 -38 21 -71 19 -72 -1 -2 -58 28 -126 67 -68 38 -126 68 -128
65 -8 -7 38 -89 75 -135 73 -90 173 -149 455 -265 174 -73 257 -113 257 -124
0 -11 -209 -142 -346 -217 -67 -36 -195 -98 -283 -136 -886 -382 -1936 -452
-2971 -198 -188 47 -549 164 -720 234 -143 59 -357 158 -472 220 -49 26 -88
43 -88 38 0 -11 180 -146 305 -230 458 -306 978 -497 1557 -572 294 -39 426
-44 986 -43 298 1 542 0 542 -3 0 -2 -57 -26 -127 -53 -356 -140 -787 -248
-1354 -341 -241 -40 -355 -56 -1144 -166 -449 -63 -736 -109 -998 -161 -198
-40 -190 -41 -232 30 -40 68 -55 155 -55 319 0 163 -3 169 -59 121 -46 -39
-54 -84 -49 -279 2 -93 2 -186 -1 -205 l-6 -35 -17 25 c-28 41 -48 109 -48
161 0 53 -15 66 -64 53 -37 -9 -42 -42 -18 -135 12 -44 19 -86 16 -94 -8 -19
-241 -74 -574 -135 -444 -81 -593 -117 -800 -192 -88 -31 -340 -156 -340 -167
0 -7 305 -181 317 -181 3 0 60 27 125 61 232 118 446 170 692 170 305 -1 534
-58 1181 -298 846 -314 1180 -402 1767 -467 388 -44 777 -65 1613 -91 1220
-37 1671 -69 2190 -155 305 -51 499 -103 847 -231 573 -210 676 -235 941 -226
208 6 360 36 818 161 529 144 788 196 990 196 l55 0 48 95 c159 313 379 534
669 670 128 60 233 96 522 176 331 93 406 118 560 194 155 75 270 157 383 273
135 138 312 425 312 505 0 50 -27 134 -67 207 -70 128 -158 227 -373 418 -391
347 -495 468 -556 648 -13 40 -24 95 -24 122 l0 49 78 11 c402 62 878 16 1533
-149 269 -67 524 -140 1139 -326 283 -85 693 -206 910 -268 217 -63 589 -177
825 -254 705 -229 876 -280 1208 -361 552 -135 968 -164 1267 -89 99 25 242
97 307 154 100 88 174 226 207 388 19 91 21 329 5 459 l-12 88 -146 80 c-216
120 -734 375 -986 485 -754 333 -1373 554 -3055 1094 -1033 332 -1556 511
-2090 718 -397 154 -820 334 -1095 467 l-109 52 69 71 c133 135 295 216 493
249 107 18 382 15 687 -6 336 -24 501 2 996 155 434 135 554 160 855 175 248
12 507 1 1039 -46 312 -27 483 -37 715 -41 307 -5 420 1 555 31 91 20 221 32
535 51 425 26 612 49 815 102 431 112 647 332 687 698 30 279 -75 441 -389
598 -295 148 -682 233 -1543 337 -140 17 -509 67 -820 111 -1226 173 -1504
200 -2140 204 -245 1 -470 1 -500 -1z m-2936 -5399 c431 -100 913 -486 1372
-1100 137 -183 204 -281 204 -299 0 -52 -119 -234 -208 -317 -79 -75 -157
-119 -267 -151 -71 -20 -101 -23 -262 -23 -112 1 -187 5 -193 11 -6 6 -24 61
-41 123 -47 177 -108 318 -310 716 -198 391 -259 528 -307 690 -40 134 -76
365 -58 365 3 0 34 -7 70 -15z m-2620 -1412 c22 -52 117 -152 184 -193 23 -14
42 -30 42 -37 0 -7 -17 -30 -38 -53 -47 -49 -85 -53 -132 -14 -72 61 -134 261
-100 325 16 28 23 24 44 -28z m-904 -371 c337 -87 707 -299 984 -563 l74 -69
7 57 c56 452 475 481 1240 84 170 -88 341 -187 514 -299 l92 -59 -51 -76 c-91
-137 -218 -230 -385 -286 -173 -57 -237 -63 -745 -71 -365 -6 -484 -11 -553
-24 -97 -18 -212 -55 -263 -85 l-32 -19 -199 62 c-109 35 -239 79 -288 98
-103 40 -270 123 -280 137 -3 6 32 79 79 162 l85 152 -32 45 c-50 71 -203 228
-276 282 -89 67 -218 133 -327 166 -81 25 -103 28 -249 28 -168 0 -152 3 -349
-61 -19 -6 -19 -6 0 26 70 119 205 238 332 291 119 50 179 60 352 56 133 -3
172 -8 270 -34z m-370 -488 c117 -39 215 -99 306 -189 45 -44 88 -94 97 -111
16 -30 15 -31 -69 -182 l-85 -151 -47 20 c-124 53 -255 149 -442 325 -74 69
-154 140 -177 157 -24 17 -43 34 -43 38 0 5 22 26 50 48 45 36 106 63 170 75
49 9 166 -6 240 -30z"/>
<path d="M21207 7788 c-4 -40 -18 -131 -33 -203 -35 -178 -32 -287 12 -365 17
-30 35 -55 41 -57 6 -2 22 16 37 41 40 68 98 99 80 44 -6 -19 -3 -20 27 -14
73 14 90 62 65 195 -20 110 -20 158 -1 195 18 34 20 31 -36 59 -32 16 -52 37
-77 80 -28 49 -79 97 -103 97 -3 0 -9 -33 -12 -72z"/>
<path d="M18968 7783 c-35 -42 -43 -86 -42 -238 0 -135 3 -158 27 -231 15 -44
41 -101 59 -125 l32 -44 20 45 c17 37 21 64 20 150 0 93 -5 118 -38 220 -20
63 -40 143 -43 178 -6 66 -11 72 -35 45z"/>
<path d="M18755 7720 c-25 -41 -29 -421 -5 -460 11 -17 54 -6 79 21 38 41 38
92 0 255 -10 45 -19 99 -20 120 -1 22 -3 47 -6 57 -5 18 -38 23 -48 7z"/>
<path d="M18866 4679 c-54 -64 -69 -104 -142 -382 -30 -114 -65 -235 -79 -269
-14 -34 -23 -64 -20 -66 10 -10 90 54 127 102 70 88 117 205 143 355 16 92 20
291 6 291 -5 0 -21 -14 -35 -31z"/>
<path d="M3180 3769 c-517 -23 -1105 -86 -1700 -185 -255 -42 -759 -137 -805
-151 -71 -23 299 -39 540 -24 247 16 403 33 880 96 703 92 781 99 1183 100
l352 0 25 -30 c71 -85 112 -212 100 -314 l-6 -56 -257 -1 c-379 -2 -628 -21
-1377 -109 -593 -69 -784 -87 -1038 -101 -70 -4 -124 -10 -120 -15 12 -11 167
-56 253 -73 246 -49 606 -48 1040 4 613 72 631 73 925 74 308 1 410 -10 630
-63 66 -16 121 -28 123 -27 9 9 -26 181 -68 336 -27 100 -52 208 -56 239 -6
55 -5 60 25 94 37 42 87 62 189 77 41 6 86 17 101 25 29 14 91 79 91 94 0 21
-634 27 -1030 10z"/>
<path d="M14106 3684 c-93 -62 -229 -194 -339 -329 -106 -130 -331 -444 -324
-452 10 -10 170 48 282 102 68 33 141 78 190 118 84 68 174 169 156 175 -38
13 -172 -60 -257 -140 -54 -51 -64 -57 -64 -39 0 46 43 101 176 226 142 135
198 207 234 303 32 84 25 89 -54 36z"/>
<path d="M21915 3664 c-73 -37 -129 -113 -169 -230 -42 -119 -80 -364 -57
-364 22 0 66 28 98 62 46 48 70 114 104 282 26 135 41 192 64 249 9 21 -1 21
-40 1z"/>
<path d="M15175 2464 c-372 -207 -529 -311 -740 -489 l-30 -25 27 -52 c74
-141 274 -358 434 -470 370 -258 723 -290 914 -81 90 99 139 237 125 353 -17
132 -71 229 -292 521 -81 108 -166 231 -188 273 -22 41 -44 76 -50 76 -5 0
-95 -48 -200 -106z m100 -239 c102 -18 208 -71 283 -140 204 -190 200 -454
-13 -702 -41 -48 -52 -50 -140 -28 -135 36 -259 105 -505 284 -96 70 -196 142
-222 160 -27 17 -48 35 -48 39 0 18 93 162 134 209 82 92 208 162 329 182 74
12 93 12 182 -4z"/>
<path d="M14723 2434 c-86 -31 -172 -134 -173 -208 0 -26 2 -28 28 -22 65 15
173 79 241 142 72 67 84 87 55 98 -27 10 -107 5 -151 -10z"/>
</g>
</svg>
